<svg width="24" height="16" viewBox="0 0 24 16" fill="none" xmlns="http://www.w3.org/2000/svg">
<path d="M1.47943 7.47836C1.01226 7.47836 0.633541 7.85708 0.633541 8.32425C0.633541 8.79143 1.01226 9.17014 1.47943 9.17014L1.47943 7.47836ZM22.9087 9.17014C23.3758 9.17014 23.7545 8.79142 23.7545 8.32425C23.7545 7.85708 23.3758 7.47836 22.9087 7.47836V9.17014ZM18.1499 0.959457C17.8199 0.628861 17.2843 0.628446 16.9537 0.958531C16.6231 1.28862 16.6227 1.8242 16.9528 2.1548L18.1499 0.959457ZM19.9125 3.92198L19.3139 4.51965L19.9125 3.92198ZM19.9125 12.7265L20.5111 13.3242L19.9125 12.7265ZM16.9528 14.4937C16.6227 14.8243 16.6231 15.3599 16.9537 15.69C17.2843 16.0201 17.8199 16.0196 18.1499 15.689L16.9528 14.4937ZM22.882 7.90018L23.7213 7.79432V7.79432L22.882 7.90018ZM22.882 8.74832L23.7213 8.85418V8.85418L22.882 8.74832ZM1.47943 9.17014L22.9087 9.17014V7.47836L1.47943 7.47836L1.47943 9.17014ZM16.9528 2.1548L19.3139 4.51965L20.5111 3.32431L18.1499 0.959457L16.9528 2.1548ZM19.3139 12.1289L16.9528 14.4937L18.1499 15.689L20.5111 13.3242L19.3139 12.1289ZM19.3139 4.51965C20.2695 5.47664 20.9348 6.1448 21.3868 6.7136C21.828 7.26872 21.9976 7.64762 22.0428 8.00604L23.7213 7.79432C23.6215 7.00342 23.2478 6.33618 22.7113 5.66101C22.1856 4.99952 21.4386 4.25323 20.5111 3.32431L19.3139 4.51965ZM20.5111 13.3242C21.4386 12.3953 22.1856 11.649 22.7113 10.9875C23.2478 10.3123 23.6215 9.64509 23.7213 8.85418L22.0428 8.64247C21.9976 9.00088 21.828 9.37978 21.3868 9.93491C20.9348 10.5037 20.2695 11.1719 19.3139 12.1289L20.5111 13.3242ZM22.0428 8.00603C22.0694 8.21734 22.0694 8.43117 22.0428 8.64247L23.7213 8.85418C23.7656 8.50229 23.7656 8.14621 23.7213 7.79432L22.0428 8.00603Z" fill="white"/>
</svg>
