<svg width="18" height="18" viewBox="0 0 18 18" fill="none" xmlns="http://www.w3.org/2000/svg">
<path d="M8.99166 0.666687C4.39166 0.666687 0.666664 4.40002 0.666664 9.00002C0.666664 13.6 4.39166 17.3334 8.99166 17.3334C13.6 17.3334 17.3333 13.6 17.3333 9.00002C17.3333 4.40002 13.6 0.666687 8.99166 0.666687ZM9 15.6667C5.31666 15.6667 2.33333 12.6834 2.33333 9.00002C2.33333 5.31669 5.31666 2.33335 9 2.33335C12.6833 2.33335 15.6667 5.31669 15.6667 9.00002C15.6667 12.6834 12.6833 15.6667 9 15.6667ZM8.81666 4.83335H8.76666C8.43333 4.83335 8.16666 5.10002 8.16666 5.43335V9.36669C8.16666 9.65835 8.31666 9.93335 8.575 10.0834L12.0333 12.1584C12.3167 12.325 12.6833 12.2417 12.85 11.9584C13.025 11.675 12.9333 11.3 12.6417 11.1334L9.41666 9.21669V5.43335C9.41666 5.10002 9.15 4.83335 8.81666 4.83335Z" fill="#376CBB"/>
</svg>
