<svg width="40" height="40" viewBox="0 0 40 40" fill="none" xmlns="http://www.w3.org/2000/svg">
<path d="M39.6198 21.6305C39.7639 21.7115 39.7927 21.8832 39.7985 21.9487L39.7999 21.9748L39.6398 32.3038C39.6398 36.4241 36.4474 39.784 32.4275 39.99L32.036 40H7.94397C3.87319 40 0.553558 36.7688 0.350057 32.7001L0.34017 32.3038L0.2001 21.9748C0.2001 21.9748 0.2001 21.7317 0.38019 21.6305C0.54027 21.5292 0.74037 21.6507 0.76038 21.671C4.8024 24.3849 9.66483 26.1874 14.7674 26.9368C15.4877 27.038 16.2081 26.5722 16.4082 25.8431C16.8209 24.2862 18.0954 23.2276 19.6545 23.1014L19.97 23.0887H20.03C21.7309 23.0887 23.1516 24.1824 23.5918 25.8431C23.7919 26.5722 24.5123 27.038 25.2326 26.9368C30.3352 26.1874 35.1976 24.3849 39.2396 21.671C39.2396 21.671 39.2796 21.6507 39.3197 21.6305C39.3997 21.59 39.5198 21.5697 39.6198 21.6305ZM19.99 25.9849C19.238 25.9849 18.6036 26.5635 18.5031 27.2995L18.4892 27.5039V30.1165C18.4892 30.9671 19.1696 31.6355 19.99 31.6355C20.7604 31.6355 21.3794 31.0739 21.4773 30.3251L21.4907 30.1165V27.5039C21.4907 26.6735 20.8304 25.9849 19.99 25.9849ZM22.5713 0C25.5728 0 28.034 2.2886 28.4142 5.22529H32.3762C36.5783 5.22529 40 8.68856 40 12.9417C40 12.9417 39.8799 14.7422 39.8399 17.2495C39.8359 17.448 39.7399 17.6424 39.5818 17.7599C38.6193 18.4708 37.7389 19.0581 37.6588 19.0986C34.3372 21.3265 30.4772 22.8941 26.3652 23.6738C26.097 23.7265 25.8329 23.5867 25.6968 23.3477C24.5443 21.3508 22.3912 20.0505 19.99 20.0505C17.6048 20.0505 15.4317 21.3366 14.2451 23.3356C14.1071 23.5705 13.8469 23.7062 13.5808 23.6556C9.50275 22.8738 5.64282 21.3082 2.34117 19.1189L0.42021 17.7822C0.26013 17.6809 0.16008 17.4986 0.16008 17.2961C0.10005 16.2632 0 12.9417 0 12.9417C0 8.68856 3.42171 5.22529 7.62381 5.22529H11.5658C11.946 2.2886 14.4072 0 17.4087 0H22.5713ZM22.5713 3.03796H17.4087C16.068 3.03796 14.9275 3.9696 14.6073 5.22529H25.3727C25.0525 3.9696 23.912 3.03796 22.5713 3.03796Z" fill="#376CBB"/>
</svg>
