<svg width="33" height="43" viewBox="0 0 33 43" fill="none" xmlns="http://www.w3.org/2000/svg">
<path fill-rule="evenodd" clip-rule="evenodd" d="M0 3.53571V38.8929C0 39.8306 0.372511 40.7299 1.03559 41.393C1.69866 42.0561 2.59798 42.4286 3.53571 42.4286H18.8571V38.2623C17.9584 37.7434 17.256 36.9425 16.8589 35.9837C16.4617 35.0249 16.392 33.9619 16.6606 32.9595C16.9292 31.9571 17.5211 31.0713 18.3444 30.4395C19.1677 29.8078 20.1765 29.4653 21.2143 29.4653C22.2521 29.4653 23.2608 29.8078 24.0842 30.4395C24.9075 31.0713 25.4993 31.9571 25.7679 32.9595C26.0365 33.9619 25.9669 35.0249 25.5697 35.9837C25.1726 36.9425 24.4702 37.7434 23.5714 38.2623V42.4286H29.4643C30.402 42.4286 31.3013 42.0561 31.9644 41.393C32.6275 40.7299 33 39.8306 33 38.8929V3.53571C33 2.59798 32.6275 1.69866 31.9644 1.03559C31.3013 0.372512 30.402 0 29.4643 0H3.53571C2.59798 0 1.69866 0.372512 1.03559 1.03559C0.372511 1.69866 0 2.59798 0 3.53571ZM21.2143 36.5357C21.8394 36.5357 22.439 36.2874 22.881 35.8453C23.3231 35.4033 23.5714 34.8037 23.5714 34.1786C23.5714 33.5534 23.3231 32.9539 22.881 32.5118C22.439 32.0698 21.8394 31.8214 21.2143 31.8214C20.5891 31.8214 19.9896 32.0698 19.5475 32.5118C19.1055 32.9539 18.8571 33.5534 18.8571 34.1786C18.8571 34.8037 19.1055 35.4033 19.5475 35.8453C19.9896 36.2874 20.5891 36.5357 21.2143 36.5357ZM9.42857 8.25C9.42857 7.93742 9.55274 7.63765 9.77377 7.41662C9.99479 7.1956 10.2946 7.07143 10.6071 7.07143H22.3929C22.7054 7.07143 23.0052 7.1956 23.2262 7.41662C23.4473 7.63765 23.5714 7.93742 23.5714 8.25C23.5714 8.56258 23.4473 8.86235 23.2262 9.08337C23.0052 9.3044 22.7054 9.42857 22.3929 9.42857H10.6071C10.2946 9.42857 9.99479 9.3044 9.77377 9.08337C9.55274 8.86235 9.42857 8.56258 9.42857 8.25ZM5.89286 14.1429C5.58028 14.1429 5.28051 14.267 5.05948 14.4881C4.83846 14.7091 4.71429 15.0089 4.71429 15.3214C4.71429 15.634 4.83846 15.9338 5.05948 16.1548C5.28051 16.3758 5.58028 16.5 5.89286 16.5H27.1071C27.4197 16.5 27.7195 16.3758 27.9405 16.1548C28.1615 15.9338 28.2857 15.634 28.2857 15.3214C28.2857 15.0089 28.1615 14.7091 27.9405 14.4881C27.7195 14.267 27.4197 14.1429 27.1071 14.1429H5.89286ZM4.71429 20.0357C4.71429 19.7231 4.83846 19.4234 5.05948 19.2023C5.28051 18.9813 5.58028 18.8571 5.89286 18.8571H27.1071C27.4197 18.8571 27.7195 18.9813 27.9405 19.2023C28.1615 19.4234 28.2857 19.7231 28.2857 20.0357C28.2857 20.3483 28.1615 20.6481 27.9405 20.8691C27.7195 21.0901 27.4197 21.2143 27.1071 21.2143H5.89286C5.58028 21.2143 5.28051 21.0901 5.05948 20.8691C4.83846 20.6481 4.71429 20.3483 4.71429 20.0357ZM5.89286 23.5714C5.58028 23.5714 5.28051 23.6956 5.05948 23.9166C4.83846 24.1376 4.71429 24.4374 4.71429 24.75C4.71429 25.0626 4.83846 25.3624 5.05948 25.5834C5.28051 25.8044 5.58028 25.9286 5.89286 25.9286H27.1071C27.4197 25.9286 27.7195 25.8044 27.9405 25.5834C28.1615 25.3624 28.2857 25.0626 28.2857 24.75C28.2857 24.4374 28.1615 24.1376 27.9405 23.9166C27.7195 23.6956 27.4197 23.5714 27.1071 23.5714H5.89286Z" fill="#376CBB"/>
</svg>
