<svg width="49" height="62" viewBox="0 0 49 62" fill="none" xmlns="http://www.w3.org/2000/svg">
<path d="M10.1209 5.61901V22.4575L10.0866 22.4233L0.0136719 32.4894V5.62587C0.0136719 2.83886 2.27341 0.572266 5.06727 0.572266C6.4642 0.572266 7.73102 1.13378 8.64177 2.05821C9.55936 2.96211 10.1209 4.22893 10.1209 5.61901Z" fill="#22407C"/>
<path d="M10.0798 33.0376L10.1141 33.0718V45.7948C10.1141 48.5819 7.85431 50.8485 5.0536 50.8485C2.26659 50.8485 0 48.5887 0 45.7948V43.1106L10.0798 33.0376Z" fill="#457ABD"/>
<path d="M48.9884 5.61902V12.2544L38.8744 22.3685V5.61902C38.8744 2.83201 41.1341 0.56543 43.928 0.56543C45.3249 0.56543 46.5917 1.12694 47.5025 2.05138C48.4269 2.96212 48.9884 4.22894 48.9884 5.61902Z" fill="#22407C"/>
<path d="M38.8744 33.0032L48.9884 22.8892V45.8016C48.9884 48.5886 46.7287 50.8552 43.928 50.8552C41.141 50.8552 38.8744 48.5954 38.8744 45.8016V33.0032Z" fill="#457ABD"/>
<path d="M29.5547 16.1989V31.928L24.4531 37.0296L19.4406 32.017V16.2057C19.4406 13.4187 21.7004 11.1521 24.4942 11.1521C25.8911 11.1521 27.158 11.7136 28.0687 12.638C28.9932 13.5419 29.5547 14.8156 29.5547 16.1989Z" fill="#22407C"/>
<path d="M24.4531 47.6504L29.5547 42.5488V56.3812C29.5547 59.1682 27.2949 61.4348 24.4942 61.4348C21.7072 61.4348 19.4406 59.175 19.4406 56.3812V42.631L24.4531 47.6504Z" fill="#457ABD"/>
</svg>
