<svg width="49" height="61" viewBox="0 0 49 61" fill="none" xmlns="http://www.w3.org/2000/svg">
<path d="M10.1209 5.05407V21.8926L10.0866 21.8583L0.0136719 31.9244V5.06093C0.0136719 2.27391 2.27341 0.00732422 5.06727 0.00732422C6.4642 0.00732422 7.73102 0.568834 8.64177 1.49327C9.55936 2.39717 10.1209 3.66399 10.1209 5.05407Z" fill="white"/>
<path d="M10.0798 32.4722L10.1141 32.5064V45.2294C10.1141 48.0164 7.85431 50.283 5.0536 50.283C2.26659 50.283 0 48.0233 0 45.2294V42.5451L10.0798 32.4722Z" fill="white"/>
<path d="M48.9884 5.05359V11.689L38.8744 21.8031V5.05359C38.8744 2.26658 41.1341 0 43.928 0C45.3249 0 46.5917 0.56151 47.5025 1.48595C48.4269 2.39669 48.9884 3.66351 48.9884 5.05359Z" fill="white"/>
<path d="M38.8744 32.4378L48.9884 22.3237V45.2361C48.9884 48.0231 46.7287 50.2897 43.928 50.2897C41.141 50.2897 38.8744 48.03 38.8744 45.2361V32.4378Z" fill="white"/>
<path d="M29.5547 15.6332V31.3623L24.4531 36.4639L19.4406 31.4514V15.64C19.4406 12.853 21.7004 10.5864 24.4942 10.5864C25.8911 10.5864 27.158 11.1479 28.0687 12.0724C28.9932 12.9763 29.5547 14.25 29.5547 15.6332Z" fill="white"/>
<path d="M24.4531 47.0849L29.5547 41.9834V55.8157C29.5547 58.6028 27.2949 60.8693 24.4942 60.8693C21.7072 60.8693 19.4406 58.6096 19.4406 55.8157V42.0656L24.4531 47.0849Z" fill="white"/>
</svg>
