<svg width="24" height="16" viewBox="0 0 24 16" fill="none" xmlns="http://www.w3.org/2000/svg">
<path d="M1.38812 7.43271C0.92095 7.43271 0.542232 7.81143 0.542232 8.2786C0.542232 8.74577 0.92095 9.12449 1.38812 9.12449L1.38812 7.43271ZM22.8173 9.12449C23.2845 9.12449 23.6632 8.74577 23.6632 8.2786C23.6632 7.81143 23.2845 7.43271 22.8173 7.43271V9.12449ZM18.0586 0.913803C17.7286 0.583207 17.193 0.582792 16.8624 0.912877C16.5318 1.24296 16.5314 1.77855 16.8614 2.10915L18.0586 0.913803ZM19.8212 3.87632L19.2226 4.474L19.8212 3.87632ZM19.8212 12.6809L20.4198 13.2785L19.8212 12.6809ZM16.8614 14.448C16.5314 14.7786 16.5318 15.3142 16.8624 15.6443C17.193 15.9744 17.7286 15.974 18.0586 15.6434L16.8614 14.448ZM22.7907 7.85452L23.6299 7.74867V7.74867L22.7907 7.85452ZM22.7907 8.70267L23.6299 8.80853V8.80853L22.7907 8.70267ZM1.38812 9.12449L22.8173 9.12449V7.43271L1.38812 7.43271L1.38812 9.12449ZM16.8614 2.10915L19.2226 4.474L20.4198 3.27865L18.0586 0.913803L16.8614 2.10915ZM19.2226 12.0832L16.8614 14.448L18.0586 15.6434L20.4198 13.2785L19.2226 12.0832ZM19.2226 4.474C20.1781 5.43099 20.8435 6.09915 21.2955 6.66794C21.7367 7.22307 21.9063 7.60197 21.9515 7.96038L23.6299 7.74867C23.5302 6.95776 23.1565 6.29053 22.62 5.61536C22.0943 4.95386 21.3473 4.20758 20.4198 3.27865L19.2226 4.474ZM20.4198 13.2785C21.3473 12.3496 22.0943 11.6033 22.62 10.9418C23.1565 10.2667 23.5302 9.59943 23.6299 8.80853L21.9515 8.59681C21.9063 8.95523 21.7367 9.33413 21.2955 9.88925C20.8435 10.458 20.1782 11.1262 19.2226 12.0832L20.4198 13.2785ZM21.9515 7.96038C21.9781 8.17169 21.9781 8.38551 21.9515 8.59681L23.6299 8.80853C23.6743 8.45664 23.6743 8.10056 23.6299 7.74867L21.9515 7.96038Z" fill="white"/>
</svg>
