<svg width="12" height="12" viewBox="0 0 12 12" fill="none" xmlns="http://www.w3.org/2000/svg">
<path d="M11.0716 6.0901C11.1115 6.11254 11.1195 6.1601 11.1211 6.17823L11.1215 6.18545L11.0772 9.0458C11.0772 10.1868 10.1931 11.1172 9.07991 11.1743L8.97149 11.177H2.29984C1.17255 11.177 0.253269 10.2823 0.196914 9.15554L0.194177 9.0458L0.155388 6.18545C0.155388 6.18545 0.155388 6.11815 0.205259 6.0901C0.249589 6.06206 0.305001 6.09571 0.310542 6.10132C1.42987 6.85287 2.77639 7.35203 4.1894 7.55954C4.38889 7.58758 4.58837 7.45859 4.64379 7.25668C4.75807 6.82552 5.111 6.53239 5.54277 6.49743L5.63012 6.49392H5.64675C6.11775 6.49392 6.51118 6.79678 6.63309 7.25668C6.6885 7.45859 6.88798 7.58758 7.08747 7.55954C8.50048 7.35203 9.847 6.85287 10.9663 6.10132C10.9663 6.10132 10.9774 6.09571 10.9885 6.0901C11.0107 6.07889 11.0439 6.07328 11.0716 6.0901ZM5.63567 7.29594C5.42741 7.29594 5.25174 7.45617 5.22391 7.66L5.22007 7.71658V8.44008C5.22007 8.67564 5.40847 8.86072 5.63567 8.86072C5.849 8.86072 6.02043 8.7052 6.04753 8.49784L6.05126 8.44008V7.71658C6.05126 7.48663 5.8684 7.29594 5.63567 7.29594ZM6.35048 0.100128C7.18167 0.100128 7.86324 0.733893 7.96852 1.54713H9.06569C10.2293 1.54713 11.1769 2.50619 11.1769 3.68398C11.1769 3.68398 11.1436 4.18258 11.1326 4.87692C11.1315 4.93188 11.1049 4.98573 11.0611 5.01826C10.7946 5.21512 10.5507 5.37776 10.5286 5.38898C9.60873 6.00592 8.53982 6.44002 7.4011 6.65595C7.32685 6.67053 7.25371 6.63183 7.21602 6.56565C6.89685 6.01265 6.30061 5.65258 5.63567 5.65258C4.97515 5.65258 4.37337 6.00872 4.04478 6.56229C4.00654 6.62735 3.93451 6.66492 3.86081 6.6509C2.73151 6.43441 1.6626 6.00087 0.7483 5.39459L0.216341 5.02443C0.172012 4.99638 0.144305 4.94591 0.144305 4.88982C0.127682 4.60379 0.0999756 3.68398 0.0999756 3.68398C0.0999756 2.50619 1.04753 1.54713 2.21118 1.54713H3.30281C3.40809 0.733893 4.08966 0.100128 4.92085 0.100128H6.35048ZM6.35048 0.941409H4.92085C4.54958 0.941409 4.23373 1.1994 4.14507 1.54713H7.12626C7.0376 1.1994 6.72175 0.941409 6.35048 0.941409Z" fill="#5F9155"/>
</svg>
