<svg width="24" height="16" viewBox="0 0 24 16" fill="none" xmlns="http://www.w3.org/2000/svg">
<path d="M1 6.92123C0.532828 6.92123 0.15411 7.29995 0.15411 7.76713C0.15411 8.2343 0.532828 8.61302 1 8.61302L1 6.92123ZM22.4292 8.61301C22.8964 8.61301 23.2751 8.2343 23.2751 7.76712C23.2751 7.29995 22.8964 6.92123 22.4292 6.92123V8.61301ZM17.6705 0.402328C17.3404 0.071732 16.8048 0.0713174 16.4742 0.401402C16.1437 0.731487 16.1432 1.26708 16.4733 1.59767L17.6705 0.402328ZM19.4331 3.36485L18.8345 3.96252L19.4331 3.36485ZM19.4331 12.1694L20.0317 12.7671L19.4331 12.1694ZM16.4733 13.9366C16.1432 14.2672 16.1437 14.8028 16.4742 15.1328C16.8048 15.4629 17.3404 15.4625 17.6705 15.1319L16.4733 13.9366ZM22.4026 7.34305L23.2418 7.23719V7.23719L22.4026 7.34305ZM22.4026 8.1912L23.2418 8.29705V8.29705L22.4026 8.1912ZM1 8.61302L22.4292 8.61301V6.92123L1 6.92123L1 8.61302ZM16.4733 1.59767L18.8345 3.96252L20.0317 2.76718L17.6705 0.402328L16.4733 1.59767ZM18.8345 11.5717L16.4733 13.9366L17.6705 15.1319L20.0317 12.7671L18.8345 11.5717ZM18.8345 3.96252C19.79 4.91952 20.4553 5.58767 20.9074 6.15647C21.3486 6.71159 21.5181 7.09049 21.5633 7.44891L23.2418 7.23719C23.1421 6.44629 22.7684 5.77905 22.2318 5.10389C21.7061 4.44239 20.9592 3.69611 20.0317 2.76718L18.8345 3.96252ZM20.0317 12.7671C20.9592 11.8381 21.7061 11.0919 22.2318 10.4304C22.7684 9.75519 23.1421 9.08796 23.2418 8.29705L21.5633 8.08534C21.5181 8.44375 21.3486 8.82265 20.9074 9.37778C20.4553 9.94657 19.79 10.6147 18.8345 11.5717L20.0317 12.7671ZM21.5633 7.44891C21.59 7.66021 21.59 7.87404 21.5633 8.08534L23.2418 8.29705C23.2862 7.94516 23.2862 7.58908 23.2418 7.23719L21.5633 7.44891Z" fill="white"/>
</svg>
