<svg width="22" height="22" viewBox="0 0 22 22" fill="none" xmlns="http://www.w3.org/2000/svg">
<path d="M7 10.25C6.58579 10.25 6.25 10.5858 6.25 11C6.25 11.4142 6.58579 11.75 7 11.75V10.25ZM14.2 11V10.25V11ZM12.328 6.46731C12.0338 6.17572 11.5589 6.17784 11.2673 6.47204C10.9757 6.76624 10.9778 7.24111 11.272 7.53269L12.328 6.46731ZM13.2104 8.39785L12.6824 8.93054L13.2104 8.39785ZM13.2104 13.6022L12.6824 13.0695L13.2104 13.6022ZM11.272 14.4673C10.9778 14.7589 10.9757 15.2338 11.2673 15.528C11.5589 15.8222 12.0338 15.8243 12.328 15.5327L11.272 14.4673ZM14.9841 10.7493L15.7281 10.6545L15.7281 10.6545L14.9841 10.7493ZM14.9841 11.2507L15.7281 11.3455L15.7281 11.3455L14.9841 11.2507ZM15 11H15.75H15ZM20.25 11C20.25 16.1086 16.1086 20.25 11 20.25V21.75C16.9371 21.75 21.75 16.9371 21.75 11H20.25ZM11 20.25C5.89137 20.25 1.75 16.1086 1.75 11H0.25C0.25 16.9371 5.06294 21.75 11 21.75V20.25ZM1.75 11C1.75 5.89137 5.89137 1.75 11 1.75V0.25C5.06294 0.25 0.25 5.06294 0.25 11H1.75ZM11 1.75C16.1086 1.75 20.25 5.89137 20.25 11H21.75C21.75 5.06294 16.9371 0.25 11 0.25V1.75ZM7 11.75L14.2 11.75V10.25L7 10.25V11.75ZM11.272 7.53269L12.6824 8.93054L13.7383 7.86515L12.328 6.46731L11.272 7.53269ZM12.6824 13.0695L11.272 14.4673L12.328 15.5327L13.7383 14.1348L12.6824 13.0695ZM12.6824 8.93054C13.2573 9.50033 13.6427 9.88386 13.9018 10.2065C14.1514 10.5173 14.2215 10.698 14.2401 10.8442L15.7281 10.6545C15.6601 10.1213 15.4057 9.68367 15.0713 9.26724C14.7464 8.86265 14.2882 8.41012 13.7383 7.86515L12.6824 8.93054ZM13.7383 14.1348C14.2882 13.5899 14.7464 13.1373 15.0713 12.7328C15.4057 12.3163 15.6601 11.8787 15.7281 11.3455L14.2401 11.1558C14.2215 11.302 14.1514 11.4827 13.9018 11.7935C13.6427 12.1161 13.2573 12.4997 12.6824 13.0695L13.7383 14.1348ZM14.2401 10.8442C14.2467 10.8959 14.25 10.948 14.25 11H15.75C15.75 10.8846 15.7427 10.7692 15.7281 10.6545L14.2401 10.8442ZM14.25 11C14.25 11.052 14.2467 11.1041 14.2401 11.1558L15.7281 11.3455C15.7427 11.2308 15.75 11.1154 15.75 11H14.25ZM14.2 11.75H15V10.25H14.2V11.75Z" fill="white"/>
</svg>
