<svg width="25" height="16" viewBox="0 0 25 16" fill="none" xmlns="http://www.w3.org/2000/svg">
<path d="M1.20419 7.45288C0.651908 7.45288 0.204193 7.9006 0.204193 8.45288C0.204193 9.00517 0.651908 9.45288 1.20419 9.45288L1.20419 7.45288ZM23.2042 9.45288C23.7565 9.45288 24.2042 9.00517 24.2042 8.45288C24.2042 7.9006 23.7565 7.45288 23.2042 7.45288V9.45288ZM18.388 1.22318C17.985 0.845547 17.3521 0.866111 16.9745 1.26911C16.5969 1.67211 16.6174 2.30494 17.0204 2.68258L18.388 1.22318ZM20.1283 4.22438L19.4445 4.95408V4.95408L20.1283 4.22438ZM20.1283 12.6814L20.812 13.4111L20.1283 12.6814ZM17.0204 14.2232C16.6174 14.6008 16.5969 15.2336 16.9745 15.6366C17.3521 16.0397 17.985 16.0602 18.388 15.6826L17.0204 14.2232ZM23.1768 8.04555L24.1679 7.91194V7.91194L23.1768 8.04555ZM23.1768 8.86021L24.1679 8.99382V8.99382L23.1768 8.86021ZM1.20419 9.45288L23.2042 9.45288V7.45288L1.20419 7.45288L1.20419 9.45288ZM17.0204 2.68258L19.4445 4.95408L20.812 3.49468L18.388 1.22318L17.0204 2.68258ZM19.4445 11.9517L17.0204 14.2232L18.388 15.6826L20.812 13.4111L19.4445 11.9517ZM19.4445 4.95408C20.4285 5.87613 21.1032 6.5105 21.5595 7.04768C22.0044 7.57135 22.1479 7.89817 22.1858 8.17915L24.1679 7.91194C24.0569 7.08898 23.6428 6.41095 23.0838 5.75289C22.5363 5.10834 21.7612 4.38411 20.812 3.49468L19.4445 4.95408ZM20.812 13.4111C21.7612 12.5217 22.5363 11.7974 23.0838 11.1529C23.6428 10.4948 24.0569 9.81678 24.1679 8.99382L22.1858 8.72661C22.1479 9.0076 22.0044 9.33441 21.5595 9.85808C21.1032 10.3953 20.4285 11.0296 19.4445 11.9517L20.812 13.4111ZM22.1858 8.17915C22.2103 8.36096 22.2103 8.5448 22.1858 8.72661L24.1679 8.99382C24.2163 8.63467 24.2163 8.27109 24.1679 7.91194L22.1858 8.17915Z" fill="#214690"/>
</svg>
